<svg xmlns="http://www.w3.org/2000/svg" style="display:none" aria-hidden="true">
  <!--
    Ein Satz, eine Sprache: 24x24-Raster, Strichstärke 1.6, runde Enden,
    keine Füllungen. Als <symbol> abgelegt und per <use> referenziert, damit
    jedes Icon nur einmal im Dokument steht. Die Strichattribute stehen auf
    jedem <symbol> selbst: über eine gemeinsame <defs>-Gruppe vererben sie
    sich nicht, die Symbole rendern sonst als gefüllte Flächen.
  -->
  <symbol fill="none" stroke="currentColor" stroke-width="1.6" stroke-linecap="round" stroke-linejoin="round" id="ic-facade" viewBox="0 0 24 24">
    <path d="M4 21V7l8-4 8 4v14" /><path d="M9 21V9m3 12V9m3 12V9" /><path d="M2 21h20" />
  </symbol>

  <symbol fill="none" stroke="currentColor" stroke-width="1.6" stroke-linecap="round" stroke-linejoin="round" id="ic-sun" viewBox="0 0 24 24">
    <circle cx="12" cy="12" r="4" />
    <path d="M12 2v2m0 16v2M4.9 4.9l1.4 1.4m11.4 11.4 1.4 1.4M2 12h2m16 0h2M4.9 19.1l1.4-1.4M17.7 6.3l1.4-1.4" />
  </symbol>

  <symbol fill="none" stroke="currentColor" stroke-width="1.6" stroke-linecap="round" stroke-linejoin="round" id="ic-energy" viewBox="0 0 24 24">
    <path d="M13 2 4.5 13.5H11l-1 8.5 8.5-11.5H12z" />
  </symbol>

  <symbol fill="none" stroke="currentColor" stroke-width="1.6" stroke-linecap="round" stroke-linejoin="round" id="ic-car" viewBox="0 0 24 24">
    <path d="M5 17h14M3 17v-4l2-5h14l2 5v4" /><path d="M3 17v2h3v-2m12 0v2h3v-2" />
    <circle cx="7.5" cy="13.5" r="1" /><circle cx="16.5" cy="13.5" r="1" />
  </symbol>

  <symbol fill="none" stroke="currentColor" stroke-width="1.6" stroke-linecap="round" stroke-linejoin="round" id="ic-barrier" viewBox="0 0 24 24">
    <path d="M4 21V4" /><path d="M4 7h16l-2 4H4z" /><path d="M4 21h6" />
  </symbol>

  <symbol fill="none" stroke="currentColor" stroke-width="1.6" stroke-linecap="round" stroke-linejoin="round" id="ic-walk" viewBox="0 0 24 24">
    <circle cx="13" cy="4" r="1.8" />
    <path d="M11 21l1.5-6L10 12l1-5 3 2 3 1" /><path d="M12.5 15 9 21" /><path d="M11 7 8 9" />
  </symbol>

  <symbol fill="none" stroke="currentColor" stroke-width="1.6" stroke-linecap="round" stroke-linejoin="round" id="ic-narrow" viewBox="0 0 24 24">
    <path d="M4 3v18M20 3v18" /><path d="M9 8h6M9 16h6" /><path d="M11 6 9 8l2 2m2 4 2 2-2 2" />
  </symbol>

  <symbol fill="none" stroke="currentColor" stroke-width="1.6" stroke-linecap="round" stroke-linejoin="round" id="ic-tree" viewBox="0 0 24 24">
    <path d="M12 21v-5" /><path d="M12 16a5 5 0 0 0 1.6-9.7A4 4 0 0 0 6.6 8 4 4 0 0 0 8 16z" />
  </symbol>

  <symbol fill="none" stroke="currentColor" stroke-width="1.6" stroke-linecap="round" stroke-linejoin="round" id="ic-waste" viewBox="0 0 24 24">
    <path d="M4 7h16" /><path d="M9 7V5a1 1 0 0 1 1-1h4a1 1 0 0 1 1 1v2" />
    <path d="M6 7l1 13a1 1 0 0 0 1 1h8a1 1 0 0 0 1-1l1-13" /><path d="M10 11v6m4-6v6" />
  </symbol>

  <symbol fill="none" stroke="currentColor" stroke-width="1.6" stroke-linecap="round" stroke-linejoin="round" id="ic-water" viewBox="0 0 24 24">
    <path d="M12 3s5.5 6 5.5 9.5a5.5 5.5 0 0 1-11 0C6.5 9 12 3 12 3z" /><path d="M9.5 13a2.5 2.5 0 0 0 2.5 2.5" />
  </symbol>

  <symbol fill="none" stroke="currentColor" stroke-width="1.6" stroke-linecap="round" stroke-linejoin="round" id="ic-bike" viewBox="0 0 24 24">
    <circle cx="5.5" cy="17" r="3.2" /><circle cx="18.5" cy="17" r="3.2" />
    <path d="M5.5 17 10 8h4l3 9" /><path d="M9 8h5" /><path d="M12 17H8" />
  </symbol>

  <symbol fill="none" stroke="currentColor" stroke-width="1.6" stroke-linecap="round" stroke-linejoin="round" id="ic-greenroof" viewBox="0 0 24 24">
    <path d="M3 12 12 5l9 7" /><path d="M5 12v8h14v-8" />
    <path d="M9 16a3 3 0 0 1 3-3 3 3 0 0 1 3 3" /><path d="M12 20v-4" />
  </symbol>

  <symbol fill="none" stroke="currentColor" stroke-width="1.6" stroke-linecap="round" stroke-linejoin="round" id="ic-access" viewBox="0 0 24 24">
    <circle cx="12" cy="4.5" r="1.8" />
    <path d="M12 7v5h4" /><circle cx="11" cy="16" r="5" /><path d="M16 12l2 6h2" />
  </symbol>

  <symbol fill="none" stroke="currentColor" stroke-width="1.6" stroke-linecap="round" stroke-linejoin="round" id="ic-charge" viewBox="0 0 24 24">
    <path d="M5 21V5a2 2 0 0 1 2-2h5a2 2 0 0 1 2 2v16" /><path d="M3 21h13" />
    <path d="M14 9h3a2 2 0 0 1 2 2v5a1.5 1.5 0 0 0 3 0v-6l-2-2" /><path d="M10 7 8 11h3l-1 3" />
  </symbol>

  <symbol fill="none" stroke="currentColor" stroke-width="1.6" stroke-linecap="round" stroke-linejoin="round" id="ic-fire" viewBox="0 0 24 24">
    <path d="M3 18h18" /><path d="M5 18v-5h9v5" /><path d="M14 15h5l2-3v6" />
    <circle cx="8" cy="18" r="1.6" /><circle cx="17" cy="18" r="1.6" /><path d="M8 13V9h4" />
  </symbol>

  <symbol fill="none" stroke="currentColor" stroke-width="1.6" stroke-linecap="round" stroke-linejoin="round" id="ic-pipe" viewBox="0 0 24 24">
    <path d="M3 8h7a3 3 0 0 1 3 3v2a3 3 0 0 0 3 3h5" />
    <path d="M3 6v4M21 14v4" /><circle cx="13" cy="12" r="1" />
  </symbol>

  <symbol fill="none" stroke="currentColor" stroke-width="1.6" stroke-linecap="round" stroke-linejoin="round" id="ic-bus" viewBox="0 0 24 24">
    <rect x="4" y="3" width="16" height="14" rx="2" /><path d="M4 9h16" />
    <path d="M7 17v3m10-3v3" /><circle cx="8" cy="13.5" r="1" /><circle cx="16" cy="13.5" r="1" />
  </symbol>

  <symbol fill="none" stroke="currentColor" stroke-width="1.6" stroke-linecap="round" stroke-linejoin="round" id="ic-town" viewBox="0 0 24 24">
    <path d="M3 21h18" /><path d="M5 21V9l7-5 7 5v12" /><path d="M9 21v-6h6v6" /><path d="M12 4V2" />
  </symbol>

  <symbol fill="none" stroke="currentColor" stroke-width="1.6" stroke-linecap="round" stroke-linejoin="round" id="ic-health" viewBox="0 0 24 24">
    <rect x="3" y="6" width="18" height="14" rx="2" /><path d="M8 6V4h8v2" /><path d="M12 10v6m-3-3h6" />
  </symbol>

  <symbol fill="none" stroke="currentColor" stroke-width="1.6" stroke-linecap="round" stroke-linejoin="round" id="ic-ruler" viewBox="0 0 24 24">
    <rect x="2" y="8" width="20" height="8" rx="1" />
    <path d="M6 8v3m4-3v4m4-4v3m4-3v4" />
  </symbol>

  <symbol fill="none" stroke="currentColor" stroke-width="1.6" stroke-linecap="round" stroke-linejoin="round" id="ic-level" viewBox="0 0 24 24">
    <path d="M3 20h18" /><path d="M12 4v10" /><path d="M8 8l4-4 4 4" /><path d="M5 16h14" />
  </symbol>

  <symbol fill="none" stroke="currentColor" stroke-width="1.6" stroke-linecap="round" stroke-linejoin="round" id="ic-shield" viewBox="0 0 24 24">
    <path d="M12 3l7 3v6c0 4-3 7.5-7 9-4-1.5-7-5-7-9V6z" /><path d="M9.5 12l2 2 3.5-4" />
  </symbol>
</svg>
